<?xml version="1.0" encoding="UTF-8"?>
<!-- Generator: Adobe Illustrator 24.1.3, SVG Export Plug-In . SVG Version: 6.00 Build 0)  -->
<svg version="1.1" id="Layer_1" xmlns="http://www.w3.org/2000/svg" xmlns:xlink="http://www.w3.org/1999/xlink" x="0px" y="0px" viewBox="0 0 130 40" style="enable-background:new 0 0 130 40;" xml:space="preserve">
<style type="text/css">
	.st0{fill:#FFFFFF;}
	.st1{fill:url(#SVGID_1_);}
	.st2{fill:url(#SVGID_2_);}
	.st3{fill:url(#SVGID_3_);}
	.st4{fill:url(#SVGID_4_);}
</style>
<g>
	<path d="M123.3,1.4H6.7C4.1,1.4,2,3.5,2,6.1v27.8c0,2.6,2.1,4.7,4.7,4.7h116.6c2.6,0,4.7-2.1,4.7-4.7V6.1   C128,3.5,125.9,1.4,123.3,1.4z"/>
	<g>
		<g>
			<path class="st0" d="M32.7,25.6c-0.5,1.3-0.8,1.8-1.6,2.8C30.1,30,28.7,32,27,32c-1.6,0-2-1-4.2-1c-2.1,0-2.6,1-4.2,1     c-1.8,0-3.1-1.8-4.2-3.2c-2.9-4.3-3.1-9.3-1.4-12c1.3-1.9,3.3-3,5.1-3c1.8,0,3.1,1,4.7,1c1.6,0,2.5-1,4.6-1     c1.7,0,3.4,0.9,4.7,2.5C27.9,18.3,28.7,24.1,32.7,25.6z"/>
			<g>
				<path class="st0" d="M25.7,11.9c0.8-1,1.4-2.5,1.2-3.9C25.5,8.2,24,8.9,23.2,10c-0.8,0.9-1.4,2.5-1.2,3.8      C23.5,13.9,24.9,12.9,25.7,11.9z"/>
			</g>
		</g>
		<g>
			<g>
				<path class="st0" d="M46,16.7l-4.3,12.4h2l1.3-3.8h4.2l1.3,3.8h2L48,16.7C48,16.7,46,16.7,46,16.7z M47,18.8      c0.1,0.5,0.3,1.2,0.5,1.8l1.2,3.2h-3.3l1.2-3.4C46.6,19.9,46.9,19.3,47,18.8z"/>
				<path class="st0" d="M57.8,19.9c-1.3,0-2.3,0.5-3,1.4l-0.1-1.3H53v0.1c0,0.8,0.1,1.6,0.1,2.8v9.6h2v-4.4      c0.7,0.6,1.6,1.2,2.6,1.2c1,0,2.1-0.4,2.9-1.2c0.8-0.9,1.3-2.1,1.3-3.6c0-1.3-0.4-2.5-1-3.2C59.9,20.3,59,19.9,57.8,19.9z       M57.4,21.5c1.7,0,2.5,1.6,2.5,3.1c0,1.9-0.9,3.2-2.5,3.2c-1,0-2-0.8-2.2-1.7c0-0.1-0.1-0.4-0.1-0.6v-1.6c0-0.1,0-0.3,0-0.5      v-0.1C55.3,22.3,56.2,21.5,57.4,21.5z"/>
				<path class="st0" d="M67.5,19.9c-1.3,0-2.3,0.5-3,1.4l-0.1-1.3h-1.7v0.1c0,0.8,0.1,1.6,0.1,2.8v9.6h2v-4.4      c0.5,0.6,1.6,1.2,2.6,1.2c1,0,2.1-0.4,2.9-1.2c0.8-0.9,1.3-2.1,1.3-3.6c0-1.3-0.4-2.5-1-3.2C69.6,20.3,68.6,19.9,67.5,19.9z       M67,21.5c1.7,0,2.5,1.6,2.5,3.1c0,1.9-0.9,3.2-2.5,3.2c-1,0-2-0.8-2.2-1.7c0-0.1-0.1-0.4-0.1-0.6v-1.6c0-0.1,0-0.3,0-0.5v-0.1      C65.1,22.3,66,21.5,67,21.5z"/>
				<path class="st0" d="M79.6,22c-1.8-0.6-2.3-1.2-2.3-2.2c0-0.8,0.7-1.7,2.1-1.7c1.2,0,2,0.4,2.2,0.5l0.1,0.1l0.5-1.6h-0.1      c-0.1-0.3-1-0.8-2.5-0.8c-2.5,0-4,1.4-4,3.5c0,1.7,1,2.7,3.3,3.6c1.6,0.6,2.2,1.2,2.2,2.2c0,1.2-0.9,1.9-2.3,1.9      c-0.9,0-2-0.3-2.7-0.8l-0.3-0.1l-0.5,1.6h0.1c0.7,0.5,2.1,0.8,3.3,0.8c3.3,0,4.4-1.9,4.4-3.6C82.9,23.9,82,22.8,79.6,22z"/>
				<path class="st0" d="M86.3,18l-1.8,0.5v1.6h-1.3v1.6h1.3v4.7c0,1.2,0.3,1.9,0.7,2.3c0.4,0.5,1,0.8,1.8,0.8      c0.7,0,1.2-0.1,1.4-0.3h0.1l-0.1-1.6h-0.1c-0.3,0.1-0.5,0.1-0.9,0.1c-0.8,0-1-0.5-1-1.6v-4.5h2.3v-1.6h-2.3V18z"/>
				<path class="st0" d="M93.3,19.9c-2.6,0-4.4,1.9-4.4,4.8c0,2.7,1.8,4.7,4.3,4.7l0,0c2.2,0,4.4-1.6,4.4-4.8c0-1.3-0.4-2.5-1.2-3.4      C95.6,20.3,94.5,19.9,93.3,19.9z M93.2,21.4c1.7,0,2.5,1.7,2.5,3.2c0,1.9-1,3.2-2.5,3.2l0,0c-1.4,0-2.5-1.3-2.5-3.2      C90.7,23,91.5,21.4,93.2,21.4z"/>
				<path class="st0" d="M103.4,19.9L103.4,19.9c-0.3-0.1-0.4-0.1-0.5-0.1c-1,0-1.8,0.5-2.3,1.6v-1.3h-1.7v0.1      c0,0.8,0.1,1.6,0.1,2.7V29h2v-4.8c0-0.3,0-0.5,0-0.8c0.3-1.2,1-1.9,2-1.9c0.1,0,0.4,0,0.5,0h0.3L103.4,19.9L103.4,19.9z"/>
				<path class="st0" d="M107.6,19.9c-2.5,0-4.3,1.9-4.3,4.9c0,2.7,1.7,4.5,4.4,4.5c1.4,0,2.5-0.3,3-0.5h0.1l-0.3-1.6h-0.1      c-0.5,0.3-1.2,0.4-2.3,0.4c-0.8,0-2.7-0.3-2.9-2.7h6.1v-0.1c0-0.1,0-0.4,0-0.8C111.4,22.1,110.3,19.9,107.6,19.9z M107.5,21.4      c0.5,0,1,0.1,1.4,0.5c0.5,0.5,0.7,1.4,0.7,1.8h-4.3C105.4,22.5,106,21.4,107.5,21.4z"/>
			</g>
			<g>
				<path class="st0" d="M41.7,8.2C42.2,8,42.8,8,43.5,8c1.2,0,2.1,0.3,2.6,0.8C46.7,9.3,47,10,47,10.9c0,0.9-0.4,1.7-0.9,2.3      c-0.7,0.5-1.7,0.9-2.9,0.9c-0.7,0-1.2,0-1.6-0.1V8.2z M42.6,13.5c0.3,0,0.5,0,0.9,0c1.8,0,2.7-0.9,2.7-2.5      c0-1.4-0.9-2.3-2.6-2.3c-0.4,0-0.8,0-1,0.1V13.5z"/>
				<path class="st0" d="M50.1,14.1c-1.3,0-2.2-0.8-2.2-2.2s1-2.2,2.3-2.2c1.3,0,2.2,0.9,2.2,2.2C52.5,13.5,51.3,14.1,50.1,14.1      L50.1,14.1z M50.2,13.5c0.8,0,1.4-0.6,1.4-1.7c0-0.8-0.4-1.6-1.4-1.6c-1,0-1.4,0.8-1.4,1.7S49.3,13.5,50.2,13.5L50.2,13.5z"/>
				<path class="st0" d="M53.9,9.8l0.7,2.2c0.1,0.5,0.3,0.9,0.4,1.3l0,0c0.1-0.4,0.3-0.9,0.4-1.3l0.8-2.2h0.8l0.8,2.1      c0.1,0.5,0.3,0.9,0.4,1.4l0,0c0.1-0.4,0.3-0.9,0.4-1.4l0.7-2.1h0.8l-1.6,4.3h-0.8L56.7,12c-0.1-0.5-0.3-0.9-0.4-1.4l0,0      c-0.1,0.5-0.3,0.9-0.4,1.4L55.2,14h-0.8L53,9.7L53.9,9.8L53.9,9.8z"/>
				<path class="st0" d="M60.6,10.9c0-0.4,0-0.8,0-1.2h0.8v0.6l0,0c0.3-0.4,0.8-0.8,1.6-0.8c0.7,0,1.7,0.4,1.7,1.8v2.5h-0.9v-2.3      c0-0.6-0.3-1.3-1-1.3c-0.5,0-1,0.4-1.2,0.8c0,0.1,0,0.3,0,0.4V14h-0.9L60.6,10.9L60.6,10.9z"/>
				<path class="st0" d="M66.1,7.8H67V14h-0.9V7.8z"/>
				<path class="st0" d="M70.3,14.1c-1.3,0-2.2-0.8-2.2-2.2s1-2.2,2.3-2.2s2.2,0.9,2.2,2.2C72.6,13.5,71.4,14.1,70.3,14.1L70.3,14.1      z M70.3,13.5c0.8,0,1.4-0.6,1.4-1.7c0-0.8-0.4-1.6-1.4-1.6s-1.4,0.8-1.4,1.7S69.5,13.5,70.3,13.5L70.3,13.5z"/>
				<path class="st0" d="M77,12.9c0,0.4,0,0.8,0.1,1h-0.8l-0.1-0.5l0,0c-0.3,0.4-0.8,0.6-1.4,0.6c-0.9,0-1.4-0.6-1.4-1.2      c0-1,1-1.6,2.9-1.6v-0.1c0-0.4-0.1-1-1-1c-0.4,0-0.9,0.1-1.3,0.3L73.8,10c0.4-0.3,0.9-0.4,1.6-0.4c1.4,0,1.8,0.9,1.8,1.7v1.7H77      z M76.1,11.9c-0.9,0-2,0.1-2,0.9c0,0.5,0.4,0.8,0.8,0.8c0.7,0,1-0.4,1.2-0.6c0-0.1,0-0.1,0-0.3V11.9z"/>
				<path class="st0" d="M82.5,7.8v5c0,0.4,0,0.8,0,1h-0.8v-0.8l0,0c-0.3,0.5-0.8,0.8-1.6,0.8c-1.2,0-2.1-0.9-2.1-2.2      c0-1.4,0.9-2.3,2.1-2.3c0.8,0,1.2,0.3,1.4,0.6l0,0V7.8H82.5L82.5,7.8z M81.6,11.5c0-0.1,0-0.3,0-0.4c-0.1-0.5-0.7-0.9-1.3-0.9      c-0.9,0-1.4,0.6-1.4,1.7c0,0.9,0.5,1.6,1.4,1.6c0.5,0,1-0.4,1.3-0.9c0-0.1,0-0.3,0-0.4V11.5z"/>
				<path class="st0" d="M87.8,14.1c-1.3,0-2.2-0.8-2.2-2.2s1-2.2,2.3-2.2s2.2,0.9,2.2,2.2C90.2,13.5,89,14.1,87.8,14.1L87.8,14.1z       M87.8,13.5c0.8,0,1.4-0.6,1.4-1.7c0-0.8-0.4-1.6-1.4-1.6c-1,0-1.4,0.8-1.4,1.7C86.5,12.8,87,13.5,87.8,13.5L87.8,13.5z"/>
				<path class="st0" d="M91.3,10.9c0-0.4,0-0.8,0-1.2h0.8v0.6l0,0c0.3-0.4,0.8-0.8,1.6-0.8c0.7,0,1.7,0.4,1.7,1.8v2.5h-0.9v-2.3      c0-0.6-0.3-1.3-1-1.3c-0.5,0-1,0.4-1.2,0.8c0,0.1,0,0.3,0,0.4V14h-0.9V10.9L91.3,10.9z"/>
				<path class="st0" d="M99.8,8.8v1h1.2v0.6h-1.2v2.3c0,0.5,0.1,0.8,0.7,0.8c0.3,0,0.4,0,0.5,0v0.6c-0.1,0-0.4,0.1-0.8,0.1      s-0.8-0.1-0.9-0.3c-0.3-0.3-0.4-0.6-0.4-1.2v-2.6h-0.8V9.8h0.8V9.1L99.8,8.8z"/>
				<path class="st0" d="M102,7.8h0.8v2.6l0,0c0.3-0.1,0.4-0.4,0.7-0.4c0.3-0.1,0.5-0.3,0.9-0.3c0.7,0,1.7,0.4,1.7,1.8V14h-0.9v-2.5      c0-0.6-0.3-1.3-1-1.3c-0.5,0-1,0.4-1.2,0.8c-0.1,0.3-0.1,0.3-0.1,0.5v2.6h-0.9L102,7.8L102,7.8z"/>
				<path class="st0" d="M107.8,12c0,1,0.8,1.4,1.6,1.4c0.7,0,1-0.1,1.3-0.3l0.1,0.5c-0.3,0.1-0.8,0.3-1.6,0.3      c-1.4,0-2.3-0.9-2.3-2.1c0-1.3,0.9-2.3,2.2-2.3c1.6,0,2,1.2,2,1.9c0,0.1,0,0.3,0,0.4L107.8,12z M110.3,11.5      c0-0.5-0.3-1.3-1.2-1.3s-1.3,0.8-1.3,1.3H110.3z"/>
			</g>
		</g>
	</g>
</g>
</svg>