<?xml version="1.0" encoding="utf-8"?>
<!-- Generator: Adobe Illustrator 16.0.0, SVG Export Plug-In . SVG Version: 6.00 Build 0)  -->
<!DOCTYPE svg PUBLIC "-//W3C//DTD SVG 1.1//EN" "http://www.w3.org/Graphics/SVG/1.1/DTD/svg11.dtd">
<svg version="1.1" id="Layer_1" xmlns="http://www.w3.org/2000/svg" xmlns:xlink="http://www.w3.org/1999/xlink" x="0px" y="0px"
	 width="30px" height="30px" viewBox="0 0 30 30" enable-background="new 0 0 30 30" xml:space="preserve">
<g id="Layer_3">
</g>
<g id="Layer_2">
</g>
<g id="Layer_1_1_">
	<g>
		<g>
			<g>
				<path fill="#4AC600" d="M15.312,28.967c-7.7,0-13.965-6.266-13.965-13.968c0-7.701,6.265-13.966,13.965-13.966
					c7.702,0,13.967,6.265,13.967,13.966C29.277,22.701,23.014,28.967,15.312,28.967z M15.312,2.412
					c-6.939,0-12.586,5.646-12.586,12.587c0,6.942,5.646,12.589,12.586,12.589S27.9,21.941,27.9,14.999
					C27.898,8.059,22.252,2.412,15.312,2.412z"/>
			</g>
			<path fill="#4AC600" d="M21.586,11.274c-0.084-0.358-0.361-0.662-0.705-0.775c-0.4-0.132-0.768-0.029-1.113,0.319
				c-1.1,1.102-2.195,2.201-3.297,3.302l-2.91,2.913l-1.229-1.231c-0.513-0.509-1.024-1.02-1.533-1.532
				c-0.275-0.274-0.588-0.375-0.918-0.301c-0.417,0.096-0.703,0.362-0.825,0.769c-0.112,0.372-0.005,0.725,0.319,1.051l3.435,3.429
				c0.222,0.224,0.487,0.339,0.768,0.339c0.281,0,0.55-0.119,0.775-0.343c0.299-0.299,0.595-0.599,0.892-0.896l1.845-1.855
				c1.402-1.413,2.805-2.825,4.211-4.233C21.564,11.965,21.668,11.62,21.586,11.274z"/>
		</g>
	</g>
</g>
</svg>
