<?xml version="1.0" encoding="UTF-8"?>
<!-- Generator: Adobe Illustrator 24.1.3, SVG Export Plug-In . SVG Version: 6.00 Build 0)  -->
<svg version="1.1" id="Layer_1" xmlns="http://www.w3.org/2000/svg" xmlns:xlink="http://www.w3.org/1999/xlink" x="0px" y="0px" viewBox="0 0 130 40" style="enable-background:new 0 0 130 40;" xml:space="preserve">
<style type="text/css">
	.st0{fill:#FFFFFF;}
	.st1{fill:url(#SVGID_1_);}
	.st2{fill:url(#SVGID_2_);}
	.st3{fill:url(#SVGID_3_);}
	.st4{fill:url(#SVGID_4_);}
</style>
<g>
	<path d="M123.3,1.5H6.7C4.1,1.5,2,3.5,2,6.1v27.8c0,2.6,2.1,4.7,4.7,4.7h116.6c2.6,0,4.7-2.1,4.7-4.7V6.1   C128,3.5,125.9,1.5,123.3,1.5z"/>
	<path class="st0" d="M46.2,10.9c0,0.8-0.1,1.4-0.7,1.8c-0.5,0.5-1.2,0.8-2.1,0.8c-0.8,0-1.4-0.3-2.1-0.8c-0.5-0.5-0.8-1.2-0.8-2.1   c0-0.8,0.3-1.4,0.8-2.1c0.5-0.5,1.2-0.8,2.1-0.8c0.4,0,0.8,0.1,1.2,0.3c0.4,0.3,0.7,0.4,0.9,0.6L45,9.2c-0.4-0.5-0.8-0.6-1.4-0.6   c-0.5,0-1.2,0.1-1.4,0.6c-0.5,0.4-0.7,0.9-0.7,1.6c0,0.6,0.1,1.2,0.7,1.6s0.9,0.6,1.4,0.6c0.7,0,1.2-0.1,1.6-0.6   c0.3-0.3,0.4-0.6,0.4-1h-2.1v-0.8h2.7V10.9L46.2,10.9z M50.5,8.6H48v1.8h2.3V11H48v1.8h2.5v0.8h-3.3V7.9h3.3V8.6z M53.6,13.5h-0.8   V8.6h-1.6V7.9h3.9v0.6h-1.6V13.5L53.6,13.5z M57.9,13.5V7.9h0.8v5.6C58.7,13.5,57.9,13.5,57.9,13.5z M61.8,13.5H61V8.6h-1.6V7.9   h3.8v0.6h-1.6L61.8,13.5L61.8,13.5z M70.7,12.7c-0.5,0.5-1.2,0.8-2.1,0.8c-0.8,0-1.4-0.3-2.1-0.8c-0.5-0.5-0.8-1.2-0.8-2.1   c0-0.8,0.3-1.4,0.8-2.1c0.5-0.5,1.2-0.8,2.1-0.8c0.8,0,1.4,0.3,2.1,0.8c0.7,0.6,0.9,1.3,0.9,2.1C71.6,11.6,71.3,12.2,70.7,12.7z    M67.1,12.3c0.4,0.4,0.9,0.6,1.4,0.6s1.2-0.1,1.4-0.6c0.4-0.4,0.7-0.9,0.7-1.6c0-0.6-0.1-1.2-0.7-1.6c-0.4-0.4-0.9-0.6-1.4-0.6   s-1,0.1-1.4,0.5s-0.7,0.9-0.7,1.6C66.5,11.3,66.6,12,67.1,12.3z M72.6,13.5V7.9h0.8l2.7,4.4V7.9h0.8v5.6h-0.8L73.3,9v4.5L72.6,13.5   L72.6,13.5z"/>
	<path class="st0" d="M65.6,21.7c-2.2,0-4,1.7-4,4c0,2.2,1.8,4,4,4c2.2,0,4-1.7,4-4C69.6,23.2,67.8,21.7,65.6,21.7z M65.6,28   c-1.2,0-2.2-1-2.2-2.5s1-2.5,2.2-2.5s2.2,0.9,2.2,2.5C67.8,27,66.8,28,65.6,28z M56.9,21.7c-2.2,0-4,1.7-4,4c0,2.2,1.8,4,4,4   c2.2,0,4-1.7,4-4C60.9,23.2,59.1,21.7,56.9,21.7z M56.9,28c-1.2,0-2.2-1-2.2-2.5s1-2.5,2.2-2.5s2.2,0.9,2.2,2.5   C59.1,27,58,28,56.9,28z M46.5,22.8v1.7h4c-0.1,0.9-0.5,1.7-0.9,2.2c-0.5,0.5-1.4,1.2-3.1,1.2c-2.5,0-4.4-1.9-4.4-4.4   s2-4.4,4.4-4.4c1.3,0,2.3,0.5,3.1,1.2l1.2-1.2c-1-0.9-2.3-1.7-4.2-1.7c-3.4,0-6.2,2.8-6.2,6.1c0,3.4,2.9,6.1,6.2,6.1   c1.8,0,3.1-0.5,4.3-1.8c1.2-1.2,1.4-2.7,1.4-3.9c0-0.4,0-0.8-0.1-1H46.5L46.5,22.8z M88.9,24.2c-0.4-0.9-1.3-2.5-3.4-2.5   c-2.1,0-3.8,1.6-3.8,4c0,2.2,1.7,4,3.9,4c1.8,0,2.9-1.2,3.3-1.8l-1.3-0.9c-0.4,0.5-0.9,1-1.8,1c-0.9,0-1.4-0.4-2-1.2l5.3-2.2   L88.9,24.2L88.9,24.2z M83.5,25.5c0-1.4,1.2-2.3,2.1-2.3c0.7,0,1.3,0.4,1.4,0.8L83.5,25.5L83.5,25.5z M79.1,29.3h1.8V17.6h-1.8   V29.3z M76.2,22.6c-0.5-0.5-1.2-0.9-2.2-0.9c-2,0-3.8,1.8-3.8,4s1.8,3.9,3.8,3.9c0.9,0,1.7-0.5,2.1-0.9h0.1v0.5   c0,1.4-0.8,2.3-2.2,2.3c-1,0-1.8-0.8-2-1.4l-1.4,0.6c0.5,1,1.6,2.3,3.5,2.3c2.1,0,3.8-1.2,3.8-4.1v-7.1h-1.7L76.2,22.6L76.2,22.6z    M74.3,28c-1.2,0-2.2-1-2.2-2.5s1-2.5,2.2-2.5s2.2,1,2.2,2.5C76.4,27,75.5,28,74.3,28z M97.1,17.6h-4.2v11.6h1.8v-4.4h2.5   c2,0,3.8-1.4,3.8-3.6C100.8,19.1,99,17.6,97.1,17.6z M97.1,23.2h-2.5v-4h2.5c1.3,0,2.1,1.2,2.1,1.9C99,22.2,98.4,23.2,97.1,23.2   L97.1,23.2z M107.8,21.5c-1.3,0-2.6,0.5-3.1,1.8l1.6,0.6c0.4-0.6,0.9-0.8,1.6-0.8c0.9,0,1.8,0.5,1.8,1.4v0.1   c-0.1-0.3-0.9-0.5-1.7-0.5c-1.7,0-3.4,0.9-3.4,2.6c0,1.6,1.4,2.6,2.9,2.6c1.2,0,1.8-0.5,2.2-1.2h0.1v0.9h1.7v-4.4   C111.4,22.8,109.8,21.5,107.8,21.5z M107.6,28c-0.5,0-1.4-0.3-1.4-1c0-0.9,1-1.2,1.8-1.2c0.8,0,1.2,0.1,1.6,0.4   C109.5,27.2,108.6,28,107.6,28z M117.5,21.9l-2,4.9h-0.1l-2.1-5h-1.8l3.1,7.1l-1.8,3.9h1.8l4.8-11L117.5,21.9L117.5,21.9z    M101.7,29.3h1.8V17.6h-1.8V29.3z"/>
	<g>
		
			<linearGradient id="SVGID_1_" gradientUnits="userSpaceOnUse" x1="11.3622" y1="1718.6018" x2="23.4916" y2="1718.6018" gradientTransform="matrix(1 0 0 1 0 -1698.4966)">
			<stop offset="0" style="stop-color:#00C5FF"/>
			<stop offset="1" style="stop-color:#00C6FF"/>
		</linearGradient>
		<path class="st1" d="M11.8,8.5c-0.3,0.3-0.4,0.6-0.4,1.3v20.6c0,0.5,0.1,1,0.5,1.3l0.1,0.1l11.6-11.5v-0.1L11.8,8.5z"/>
		
			<linearGradient id="SVGID_2_" gradientUnits="userSpaceOnUse" x1="23.3891" y1="1718.6018" x2="32.8604" y2="1718.6018" gradientTransform="matrix(1 0 0 1 0 -1698.4966)">
			<stop offset="0" style="stop-color:#FFBC00"/>
			<stop offset="1" style="stop-color:#FFDA00"/>
		</linearGradient>
		<path class="st2" d="M27.2,24l-3.8-3.8V20l3.8-3.8l0.1,0.1l4.6,2.6c1.3,0.8,1.3,1.9,0,2.7L27.2,24z"/>
		
			<linearGradient id="SVGID_3_" gradientUnits="userSpaceOnUse" x1="11.7262" y1="1724.4971" x2="27.309" y2="1724.4971" gradientTransform="matrix(1 0 0 1 0 -1698.4966)">
			<stop offset="0" style="stop-color:#E02553"/>
			<stop offset="1" style="stop-color:#FE3945"/>
		</linearGradient>
		<path class="st3" d="M27.4,23.9L23.5,20L11.8,31.6c0.5,0.5,1.2,0.5,2,0.1L27.4,23.9"/>
		
			<linearGradient id="SVGID_4_" gradientUnits="userSpaceOnUse" x1="11.7262" y1="1712.5336" x2="27.309" y2="1712.5336" gradientTransform="matrix(1 0 0 1 0 -1698.4966)">
			<stop offset="0" style="stop-color:#11D675"/>
			<stop offset="1" style="stop-color:#00F076"/>
		</linearGradient>
		<path class="st4" d="M27.4,16.1L13.7,8.3c-0.9-0.4-1.6-0.3-2,0.1L23.5,20L27.4,16.1L27.4,16.1z"/>
	</g>
</g>
</svg>