<?xml version="1.0" encoding="utf-8"?>
<!-- Generator: Adobe Illustrator 16.0.0, SVG Export Plug-In . SVG Version: 6.00 Build 0)  -->
<!DOCTYPE svg PUBLIC "-//W3C//DTD SVG 1.1//EN" "http://www.w3.org/Graphics/SVG/1.1/DTD/svg11.dtd">
<svg version="1.1" xmlns="http://www.w3.org/2000/svg" xmlns:xlink="http://www.w3.org/1999/xlink" x="0px" y="0px" width="31px"
	 height="31px" viewBox="0 0 31 31" enable-background="new 0 0 31 31" xml:space="preserve">
<g id="Layer_3">
</g>
<g id="Layer_2">
</g>
<g id="Layer_1">
	<g>
		<path fill="#3B0C36" d="M6.831,27.185h17.439c0.332,0,0.603-0.27,0.603-0.602v-5.024c0-2.879-2.343-5.222-5.223-5.222h-8.2
			c-2.879,0-5.222,2.343-5.222,5.222v5.024C6.229,26.916,6.498,27.185,6.831,27.185z"/>
		<path fill="#3B0C36" d="M10.163,8.971c0,2.97,2.417,5.386,5.387,5.386c2.971,0,5.388-2.416,5.388-5.386
			c0-2.971-2.417-5.387-5.388-5.387C12.58,3.584,10.163,6,10.163,8.971z"/>
	</g>
</g>
</svg>
