<?xml version="1.0" encoding="utf-8"?>
<!-- Generator: Adobe Illustrator 16.0.0, SVG Export Plug-In . SVG Version: 6.00 Build 0)  -->
<!DOCTYPE svg PUBLIC "-//W3C//DTD SVG 1.1//EN" "http://www.w3.org/Graphics/SVG/1.1/DTD/svg11.dtd">
<svg version="1.1" id="Layer_1" xmlns="http://www.w3.org/2000/svg" xmlns:xlink="http://www.w3.org/1999/xlink" x="0px" y="0px"
	 width="51px" height="51px" viewBox="0 0 51 51" enable-background="new 0 0 51 51" xml:space="preserve">
<path fill="#4AC600" d="M25.5,5.79c-11.157,0-20.233,9.076-20.233,20.231S14.343,46.254,25.5,46.254
	c11.156,0,20.232-9.077,20.232-20.232S36.656,5.79,25.5,5.79z M34.012,22.082c-2,2.004-3.996,4.011-5.99,6.02L25.4,30.736
	c-0.422,0.426-0.845,0.851-1.269,1.274c-0.32,0.318-0.701,0.488-1.102,0.488c-0.398,0-0.775-0.167-1.092-0.481l-4.88-4.877
	c-0.462-0.461-0.616-0.965-0.455-1.494c0.173-0.577,0.58-0.955,1.173-1.091c0.468-0.106,0.913,0.037,1.304,0.428
	c0.725,0.727,1.453,1.454,2.179,2.179l1.75,1.749l4.137-4.143c1.563-1.564,3.125-3.129,4.688-4.695
	c0.492-0.493,1.018-0.64,1.584-0.452c0.486,0.16,0.882,0.592,1.003,1.102C34.535,21.212,34.387,21.707,34.012,22.082z"/>
</svg>
