<?xml version="1.0" encoding="utf-8"?>
<!-- Generator: Adobe Illustrator 16.0.0, SVG Export Plug-In . SVG Version: 6.00 Build 0)  -->
<!DOCTYPE svg PUBLIC "-//W3C//DTD SVG 1.1//EN" "http://www.w3.org/Graphics/SVG/1.1/DTD/svg11.dtd">
<svg version="1.1" id="Layer_1" xmlns="http://www.w3.org/2000/svg" xmlns:xlink="http://www.w3.org/1999/xlink" x="0px" y="0px"
	 width="25px" height="25px" viewBox="0 0 25 25" enable-background="new 0 0 25 25" xml:space="preserve">
<g>
	<path fill="#FFFFFF" d="M12.499,24.373c-6.546,0-11.871-5.324-11.871-11.873c0-6.546,5.325-11.873,11.871-11.873
		S24.372,5.954,24.372,12.5C24.372,19.049,19.045,24.373,12.499,24.373z M12.499,1.894C6.652,1.894,1.894,6.652,1.894,12.5
		s4.758,10.607,10.605,10.607c5.849,0,10.606-4.76,10.606-10.607S18.348,1.894,12.499,1.894z"/>
	<path fill="#FFFFFF" d="M17.835,9.333c-0.074-0.304-0.31-0.563-0.602-0.658c-0.341-0.113-0.651-0.025-0.945,0.272
		c-0.935,0.936-1.868,1.871-2.804,2.806l-2.474,2.477l-1.045-1.047c-0.435-0.434-0.871-0.867-1.304-1.303
		c-0.233-0.233-0.5-0.319-0.78-0.256c-0.354,0.082-0.598,0.308-0.702,0.653c-0.096,0.317-0.004,0.616,0.272,0.893l2.92,2.916
		c0.188,0.188,0.415,0.287,0.652,0.287s0.467-0.101,0.658-0.291c0.254-0.254,0.507-0.508,0.759-0.76l1.569-1.578
		c1.19-1.201,2.385-2.402,3.581-3.599C17.814,9.921,17.903,9.626,17.835,9.333z"/>
</g>
</svg>
