<?xml version="1.0" encoding="utf-8"?>
<!-- Generator: Adobe Illustrator 16.0.0, SVG Export Plug-In . SVG Version: 6.00 Build 0)  -->
<!DOCTYPE svg PUBLIC "-//W3C//DTD SVG 1.1//EN" "http://www.w3.org/Graphics/SVG/1.1/DTD/svg11.dtd">
<svg version="1.1" id="Layer_1" xmlns="http://www.w3.org/2000/svg" xmlns:xlink="http://www.w3.org/1999/xlink" x="0px" y="0px"
	 width="25px" height="25px" viewBox="0 0 25 25" enable-background="new 0 0 25 25" xml:space="preserve">
<g>
	<path fill="#DB1D29" d="M14.977,18.341V8.129c0-0.375-0.305-0.679-0.68-0.679s-0.679,0.303-0.679,0.679v10.211
		c0,0.376,0.304,0.68,0.679,0.68S14.977,18.717,14.977,18.341z M11.263,18.341V8.129c0-0.375-0.304-0.679-0.679-0.679
		c-0.376,0-0.68,0.303-0.68,0.679v10.211c0,0.376,0.304,0.68,0.68,0.68C10.959,19.021,11.263,18.717,11.263,18.341z M18.762,7.451
		c-0.376,0-0.679,0.303-0.679,0.679v12.334c0,0.405-0.331,0.735-0.735,0.735H7.535c-0.406,0-0.736-0.33-0.736-0.735V8.129
		c0-0.375-0.304-0.679-0.679-0.679c-0.374,0-0.68,0.303-0.68,0.679v12.334c0,1.154,0.938,2.094,2.095,2.094h9.813
		c1.153,0,2.093-0.939,2.093-2.094V8.129C19.44,7.754,19.135,7.451,18.762,7.451z M20.57,4.912h-3.824V2.803
		c0-0.376-0.306-0.679-0.68-0.679H8.814c-0.374,0-0.679,0.302-0.679,0.679v2.109H4.311c-0.374,0-0.679,0.302-0.679,0.679
		c0,0.374,0.305,0.679,0.679,0.679h16.26c0.374,0,0.679-0.305,0.679-0.679C21.249,5.214,20.944,4.912,20.57,4.912z M15.388,4.912
		H9.494V3.483h5.894V4.912L15.388,4.912z"/>
</g>
</svg>
