<?xml version="1.0" encoding="utf-8"?>
<!-- Generator: Adobe Illustrator 16.0.0, SVG Export Plug-In . SVG Version: 6.00 Build 0)  -->
<!DOCTYPE svg PUBLIC "-//W3C//DTD SVG 1.1//EN" "http://www.w3.org/Graphics/SVG/1.1/DTD/svg11.dtd">
<svg version="1.1" xmlns="http://www.w3.org/2000/svg" xmlns:xlink="http://www.w3.org/1999/xlink" x="0px" y="0px" width="31px"
	 height="31px" viewBox="0 0 31 31" enable-background="new 0 0 31 31" xml:space="preserve">
<g id="Layer_3">
</g>
<g id="Layer_2">
</g>
<g id="Layer_1">
	<path fill="#3B0C36" d="M25.269,10.498c-1.988-1.484-3.972-2.971-5.955-4.458l-2.266-1.698c-0.277-0.208-0.795-0.594-1.548-0.594
		c-0.757,0-1.28,0.393-1.562,0.604l-2.675,2.005C9.42,7.739,7.574,9.123,5.723,10.499c-0.73,0.544-1.112,1.313-1.104,2.223
		c0.005,2.611,0.005,5.221,0.005,7.832v3.711c0,1.588,0.945,2.537,2.528,2.537h4.835c1.636,0,2.573-0.937,2.573-2.57v-5.563h1.84
		v5.568c0,1.654,0.915,2.565,2.577,2.565h4.875c1.575,0,2.52-0.938,2.524-2.508v-2.481c-0.001-3.032-0.001-6.062,0.005-9.097
		C26.381,11.808,25.996,11.041,25.269,10.498z"/>
</g>
</svg>
