<?xml version="1.0" encoding="utf-8"?>
<!-- Generator: Adobe Illustrator 16.0.0, SVG Export Plug-In . SVG Version: 6.00 Build 0)  -->
<!DOCTYPE svg PUBLIC "-//W3C//DTD SVG 1.1//EN" "http://www.w3.org/Graphics/SVG/1.1/DTD/svg11.dtd">
<svg version="1.1" xmlns="http://www.w3.org/2000/svg" xmlns:xlink="http://www.w3.org/1999/xlink" x="0px" y="0px" width="31px"
	 height="31px" viewBox="0 0 31 31" enable-background="new 0 0 31 31" xml:space="preserve">
<g id="Layer_3">
</g>
<g id="Layer_2">
</g>
<g id="Layer_1">
	<g>
		<g transform="translate(160.000000, 2891.000000)">
			<g transform="translate(371.000000, 48.000000)">
				<g transform="translate(275.000000, 132.000000)">
					<path fill="#3D0137" d="M-786.062-3049.357c-0.423,0.424-1.109,0.424-1.533,0c-0.423-0.423-0.423-1.108,0-1.534l3.569-3.568
						h-8.08c-0.599,0-1.084-0.483-1.084-1.083c0-0.599,0.485-1.083,1.084-1.083h8.08l-3.569-3.57c-0.423-0.422-0.423-1.109,0-1.532
						c0.424-0.424,1.11-0.424,1.533,0l5.42,5.419c0.211,0.212,0.316,0.489,0.316,0.767c0,0.278-0.105,0.555-0.316,0.767
						L-786.062-3049.357z M-790.32-3044.704c0,0.599-0.484,1.083-1.082,1.083h-4.337c-0.438,0-0.861-0.084-1.262-0.252
						c-0.387-0.16-0.734-0.392-1.032-0.686c-0.299-0.295-0.535-0.638-0.7-1.025c-0.171-0.4-0.258-0.824-0.258-1.26v-17.37
						c0-0.439,0.087-0.864,0.257-1.267c0.164-0.386,0.397-0.733,0.695-1.032c0.299-0.298,0.646-0.532,1.034-0.697
						c0.401-0.17,0.827-0.255,1.266-0.255h4.337c0.598,0,1.082,0.483,1.082,1.083c0,0.599-0.484,1.084-1.082,1.084h-4.337
						c-0.599,0-1.084,0.486-1.084,1.084v17.37c0,0.582,0.485,1.056,1.084,1.056h4.337
						C-790.805-3045.788-790.32-3045.302-790.32-3044.704z"/>
				</g>
			</g>
		</g>
	</g>
</g>
</svg>
