<?xml version="1.0" encoding="utf-8"?>
<!-- Generator: Adobe Illustrator 16.0.0, SVG Export Plug-In . SVG Version: 6.00 Build 0)  -->
<!DOCTYPE svg PUBLIC "-//W3C//DTD SVG 1.1//EN" "http://www.w3.org/Graphics/SVG/1.1/DTD/svg11.dtd">
<svg version="1.1" xmlns="http://www.w3.org/2000/svg" xmlns:xlink="http://www.w3.org/1999/xlink" x="0px" y="0px" width="31px"
	 height="31px" viewBox="0 0 31 31" enable-background="new 0 0 31 31" xml:space="preserve">
<g id="Layer_3">
</g>
<g id="Layer_2">
</g>
<g id="Layer_1">
	<g>
		<path fill="#3B0C36" d="M12.055,9.477h13.267c1.204,0,2.184-0.979,2.184-2.183c0-1.204-0.979-2.183-2.184-2.183H12.055
			c-1.203,0-2.183,0.979-2.183,2.183C9.872,8.498,10.852,9.477,12.055,9.477z"/>
		<path fill="#3B0C36" d="M25.321,13.091H12.055c-1.203,0-2.183,0.978-2.183,2.182c0,1.203,0.979,2.183,2.183,2.183h13.267
			c1.204,0,2.184-0.979,2.184-2.183C27.505,14.069,26.525,13.091,25.321,13.091z"/>
		<path fill="#3B0C36" d="M25.321,21.07H12.055c-1.203,0-2.183,0.979-2.183,2.183s0.979,2.182,2.183,2.182h13.267
			c1.204,0,2.184-0.979,2.184-2.182S26.525,21.07,25.321,21.07z"/>
		<path fill="#3B0C36" d="M6.111,4.778c-1.387,0-2.516,1.129-2.516,2.517S4.725,9.81,6.111,9.81s2.516-1.128,2.516-2.516
			S7.498,4.778,6.111,4.778z"/>
		<path fill="#3B0C36" d="M6.111,12.757c-1.387,0-2.516,1.129-2.516,2.516c0,1.388,1.129,2.516,2.516,2.516s2.516-1.128,2.516-2.516
			C8.627,13.886,7.498,12.757,6.111,12.757z"/>
		<path fill="#3B0C36" d="M6.111,20.737c-1.387,0-2.516,1.129-2.516,2.516c0,1.388,1.129,2.517,2.516,2.517s2.516-1.129,2.516-2.517
			C8.627,21.866,7.498,20.737,6.111,20.737z"/>
	</g>
</g>
</svg>
