<?xml version="1.0" encoding="utf-8"?>
<!-- Generator: Adobe Illustrator 16.0.0, SVG Export Plug-In . SVG Version: 6.00 Build 0)  -->
<!DOCTYPE svg PUBLIC "-//W3C//DTD SVG 1.1//EN" "http://www.w3.org/Graphics/SVG/1.1/DTD/svg11.dtd">
<svg version="1.1" id="Layer_1" xmlns="http://www.w3.org/2000/svg" xmlns:xlink="http://www.w3.org/1999/xlink" x="0px" y="0px"
	 width="25px" height="25px" viewBox="0 0 25 25" enable-background="new 0 0 25 25" xml:space="preserve">
<g>
	<g>
		<path fill="#3D0137" d="M8.049,22.949c-1.269,0-2.265-0.996-2.265-2.267v-2.107H4.979c-1.942,0-3.521-1.581-3.521-3.522V5.937
			c0-1.942,1.579-3.523,3.521-3.523h15.118c1.916,0,3.475,1.581,3.475,3.523v9.116c0,1.941-1.578,3.522-3.519,3.522h-6.922
			l-3.444,3.66C9.246,22.697,8.666,22.949,8.049,22.949z M4.978,3.965c-1.083,0-1.967,0.884-1.967,1.971v9.116
			c0,1.084,0.884,1.968,1.967,1.968h2.358v3.662c0,0.464,0.367,0.715,0.711,0.715c0.135,0,0.329-0.039,0.509-0.229l3.902-4.148
			h7.593c1.085,0,1.968-0.881,1.968-1.968V5.937c0-1.105-0.844-1.971-1.922-1.971H4.978z"/>
	</g>
	<g>
		<circle fill="#3D0137" cx="7.549" cy="10.48" r="1.678"/>
		<circle fill="#3D0137" cx="12.515" cy="10.48" r="1.677"/>
		<circle fill="#3D0137" cx="17.482" cy="10.48" r="1.678"/>
		<circle fill="#3D0137" cx="7.516" cy="10.48" r="1.688"/>
		<circle fill="#3D0137" cx="12.515" cy="10.48" r="1.689"/>
		<circle fill="#3D0137" cx="17.516" cy="10.48" r="1.688"/>
	</g>
</g>
</svg>
