<?xml version="1.0" encoding="utf-8"?>
<!-- Generator: Adobe Illustrator 16.0.0, SVG Export Plug-In . SVG Version: 6.00 Build 0)  -->
<!DOCTYPE svg PUBLIC "-//W3C//DTD SVG 1.1//EN" "http://www.w3.org/Graphics/SVG/1.1/DTD/svg11.dtd">
<svg version="1.1" id="Layer_1" xmlns="http://www.w3.org/2000/svg" xmlns:xlink="http://www.w3.org/1999/xlink" x="0px" y="0px"
	 width="31px" height="31px" viewBox="0 0 31 31" enable-background="new 0 0 31 31" xml:space="preserve">
<g>
	<path fill="#4AC600" d="M23.645,21.659c-1.123,0-2.137,0.464-2.865,1.202l-9.634-6.029c0.147-0.418,0.233-0.866,0.233-1.333
		c0-0.459-0.081-0.896-0.224-1.308l9.643-6.035c0.729,0.732,1.736,1.184,2.848,1.184c2.217,0,4.021-1.803,4.021-4.02
		c0-2.217-1.809-4.021-4.021-4.021c-2.218,0-4.021,1.805-4.021,4.021c0,0.521,0.104,1.015,0.282,1.472l-9.586,6
		c-0.736-0.806-1.791-1.313-2.965-1.313c-2.216,0-4.021,1.805-4.021,4.021c0,2.217,1.804,4.021,4.021,4.021
		c1.166,0,2.211-0.498,2.945-1.295l9.597,6.006c-0.176,0.449-0.272,0.937-0.272,1.445c0,2.219,1.806,4.021,4.021,4.021
		s4.021-1.805,4.021-4.021C27.665,23.462,25.859,21.659,23.645,21.659z M23.645,2.928c1.317,0,2.393,1.073,2.393,2.391
		c0,1.32-1.073,2.393-2.393,2.393c-1.318,0-2.394-1.073-2.394-2.393C21.251,4.001,22.324,2.928,23.645,2.928z M7.355,17.893
		c-1.318,0-2.394-1.074-2.394-2.393c0-1.319,1.073-2.393,2.394-2.393c1.319,0,2.393,1.074,2.393,2.393
		C9.748,16.818,8.674,17.893,7.355,17.893z M23.645,28.072c-1.318,0-2.394-1.074-2.394-2.396c0-1.317,1.073-2.392,2.394-2.392
		c1.317,0,2.393,1.072,2.393,2.392C26.035,26.998,24.962,28.072,23.645,28.072z"/>
</g>
</svg>
