<?xml version="1.0" encoding="utf-8"?>
<!-- Generator: Adobe Illustrator 16.0.0, SVG Export Plug-In . SVG Version: 6.00 Build 0)  -->
<!DOCTYPE svg PUBLIC "-//W3C//DTD SVG 1.1//EN" "http://www.w3.org/Graphics/SVG/1.1/DTD/svg11.dtd">
<svg version="1.1" id="Layer_1" xmlns="http://www.w3.org/2000/svg" xmlns:xlink="http://www.w3.org/1999/xlink" x="0px" y="0px"
	 width="50px" height="50px" viewBox="0 0 50 50" enable-background="new 0 0 50 50" xml:space="preserve">
<path fill="#FFFFFF" d="M43.081,11.959c-1.087-0.357-2.046-0.075-2.999,0.887L20.154,32.799l-4.233-4.238
	c-1.614-1.604-3.229-3.216-4.833-4.833c-0.582-0.579-1.216-0.874-1.882-0.874c-0.179,0-0.364,0.021-0.549,0.063
	c-1.13,0.26-1.903,0.979-2.233,2.081c-0.302,0.994-0.013,1.913,0.882,2.813l10.829,10.815c1.194,1.199,2.916,1.215,4.162-0.017
	l11.717-11.781c3.395-3.415,6.791-6.832,10.191-10.238c0.718-0.719,0.993-1.623,0.773-2.546
	C44.75,13.083,44.005,12.265,43.081,11.959z"/>
</svg>
