<?xml version="1.0" encoding="utf-8"?>
<!-- Generator: Adobe Illustrator 16.0.0, SVG Export Plug-In . SVG Version: 6.00 Build 0)  -->
<!DOCTYPE svg PUBLIC "-//W3C//DTD SVG 1.1//EN" "http://www.w3.org/Graphics/SVG/1.1/DTD/svg11.dtd">
<svg version="1.1" id="Layer_1" xmlns="http://www.w3.org/2000/svg" xmlns:xlink="http://www.w3.org/1999/xlink" x="0px" y="0px"
	 width="25px" height="25px" viewBox="0 0 25 25" enable-background="new 0 0 25 25" xml:space="preserve">
<g>
	<path fill="#3D0137" d="M11.666,8.476c-2.561,0-4.646,2.067-4.646,4.609c0,2.541,2.085,4.608,4.646,4.608
		c2.563,0,4.648-2.067,4.648-4.608C16.314,10.543,14.229,8.476,11.666,8.476z M11.666,16.52c-1.914,0-3.471-1.541-3.471-3.435
		c0-1.895,1.557-3.436,3.471-3.436c1.915,0,3.473,1.541,3.473,3.436C15.139,14.979,13.581,16.52,11.666,16.52z"/>
	<path fill="#3D0137" d="M20.405,16.849v1.163c0,0.541-0.446,0.979-0.995,0.979H3.922c-0.547,0-0.992-0.438-0.992-0.979V8.98
		c0-0.541,0.445-0.981,0.992-0.981l2.744-0.002c0.029,0.005,0.059,0.008,0.087,0.008l0.043-0.002
		c0.135-0.008,0.262-0.065,0.366-0.171c0.123-0.126,0.18-0.305,0.153-0.452V6.136c0-0.441,0.366-0.802,0.813-0.802h7.075
		c0.449,0,0.815,0.36,0.815,0.802l0.002,1.214C16,7.474,16.023,7.603,16.086,7.712c0.022,0.04,0.049,0.081,0.1,0.132
		c0.104,0.104,0.242,0.16,0.39,0.16c0.03,0,0.06-0.002,0.062-0.005h2.772c0.264,0,0.515,0.104,0.704,0.29
		c0.188,0.186,0.292,0.431,0.292,0.692v0.573h1.076l0.039-0.573c0-1.156-0.946-2.096-2.11-2.096h-2.276V6.136
		c0-1.058-0.865-1.918-1.93-1.918H8.129c-1.063,0-1.929,0.86-1.929,1.918v0.748H3.922c-1.162,0-2.107,0.94-2.107,2.096v9.032
		c0,1.156,0.945,2.096,2.107,2.096H19.41c1.164,0,2.11-0.939,2.11-2.1l-0.032-1.139L20.405,16.849z"/>
	<path fill="#3D0137" d="M23.07,12.554h-1.522v-1.521c0-0.353-0.287-0.64-0.64-0.64c-0.352,0-0.639,0.287-0.639,0.64v1.521h-1.521
		c-0.353,0-0.64,0.287-0.64,0.639c0,0.353,0.287,0.64,0.64,0.64h1.521v1.522c0,0.353,0.287,0.639,0.639,0.639
		c0.353,0,0.64-0.286,0.64-0.639v-1.522h1.522c0.353,0,0.639-0.287,0.639-0.64C23.709,12.841,23.423,12.554,23.07,12.554z"/>
</g>
</svg>
