<?xml version="1.0" encoding="utf-8"?>
<!-- Generator: Adobe Illustrator 16.0.0, SVG Export Plug-In . SVG Version: 6.00 Build 0)  -->
<!DOCTYPE svg PUBLIC "-//W3C//DTD SVG 1.1//EN" "http://www.w3.org/Graphics/SVG/1.1/DTD/svg11.dtd">
<svg version="1.1" id="Layer_1" xmlns="http://www.w3.org/2000/svg" xmlns:xlink="http://www.w3.org/1999/xlink" x="0px" y="0px"
	 width="31px" height="31px" viewBox="0 0 31 31" enable-background="new 0 0 31 31" xml:space="preserve">
<g id="Layer_3">
</g>
<g id="Layer_2">
</g>
<g>
	<g>
		<g>
			<g>
				<path fill="#4AC600" d="M26.296,15.401c-0.006-0.072-0.01-0.148-0.021-0.219c-0.021-0.093-0.049-0.181-0.081-0.267l-0.006-0.022
					c-0.236-0.582-0.799-0.984-1.477-0.984h-7.617l0.002-7.617c0-0.787-0.541-1.421-1.277-1.563
					c-0.075-0.015-0.152-0.02-0.229-0.025c-0.029,0-0.059-0.008-0.089-0.008c-0.033,0-0.064,0.008-0.096,0.01
					c-0.075,0.002-0.149,0.007-0.221,0.022c-0.094,0.014-0.182,0.045-0.27,0.078l-0.021,0.008c-0.582,0.234-0.984,0.797-0.984,1.477
					v7.615H6.291c-0.786,0-1.42,0.54-1.563,1.275c-0.016,0.076-0.018,0.149-0.022,0.227c-0.002,0.031-0.01,0.058-0.01,0.091
					c0,0.036,0.01,0.068,0.011,0.103c0.004,0.071,0.007,0.144,0.021,0.215c0.018,0.09,0.045,0.179,0.077,0.262l0.004,0.021
					c0.24,0.589,0.803,0.993,1.481,0.993h7.616v7.616c0,0.785,0.54,1.42,1.276,1.563c0.073,0.015,0.149,0.019,0.226,0.023
					c0.03,0,0.06,0.007,0.091,0.007c0.036,0,0.068-0.007,0.103-0.01c0.074-0.002,0.145-0.008,0.216-0.021
					c0.091-0.018,0.179-0.046,0.263-0.08c0,0,0.019-0.005,0.027-0.005c0.583-0.235,0.985-0.8,0.985-1.479v-7.616h7.617
					c0.785,0,1.419-0.54,1.563-1.276c0.012-0.076,0.019-0.152,0.022-0.23c0.002-0.028,0.008-0.058,0.008-0.088
					C26.305,15.464,26.297,15.434,26.296,15.401z"/>
			</g>
		</g>
	</g>
</g>
</svg>
