<?xml version="1.0" encoding="utf-8"?>
<!-- Generator: Adobe Illustrator 16.0.0, SVG Export Plug-In . SVG Version: 6.00 Build 0)  -->
<!DOCTYPE svg PUBLIC "-//W3C//DTD SVG 1.1//EN" "http://www.w3.org/Graphics/SVG/1.1/DTD/svg11.dtd">
<svg version="1.1" xmlns="http://www.w3.org/2000/svg" xmlns:xlink="http://www.w3.org/1999/xlink" x="0px" y="0px" width="31px"
	 height="31px" viewBox="0 0 31 31" enable-background="new 0 0 31 31" xml:space="preserve">
<g id="Layer_3">
</g>
<g id="Layer_2">
</g>
<g id="Layer_1">
	<g>
		<path fill="#3B0C36" d="M24.615,3.805h-6.674c-0.925,0-1.676,0.752-1.676,1.676v7.561c0,0.923,0.751,1.675,1.676,1.675h6.674
			c0.924,0,1.676-0.752,1.676-1.675V5.481C26.291,4.557,25.539,3.805,24.615,3.805z"/>
		<path fill="#3B0C36" d="M13.059,3.805H6.385c-0.924,0-1.676,0.752-1.676,1.676v7.561c0,0.923,0.752,1.675,1.676,1.675h6.674
			c0.924,0,1.676-0.752,1.676-1.675V5.481C14.734,4.557,13.982,3.805,13.059,3.805z"/>
		<path fill="#3B0C36" d="M24.615,16.134h-6.674c-0.925,0-1.676,0.751-1.676,1.675v7.56c0,0.925,0.751,1.676,1.676,1.676h6.674
			c0.924,0,1.676-0.751,1.676-1.676v-7.56C26.291,16.885,25.539,16.134,24.615,16.134z"/>
		<path fill="#3B0C36" d="M13.059,16.134H6.385c-0.924,0-1.676,0.751-1.676,1.675v7.56c0,0.925,0.752,1.676,1.676,1.676h6.674
			c0.924,0,1.676-0.751,1.676-1.676v-7.56C14.734,16.885,13.982,16.134,13.059,16.134z"/>
	</g>
</g>
</svg>
