<?xml version="1.0" encoding="utf-8"?>
<!-- Generator: Adobe Illustrator 16.0.0, SVG Export Plug-In . SVG Version: 6.00 Build 0)  -->
<!DOCTYPE svg PUBLIC "-//W3C//DTD SVG 1.1//EN" "http://www.w3.org/Graphics/SVG/1.1/DTD/svg11.dtd">
<svg width="10" height="7" viewBox="0 0 10 7" fill="none" xmlns="http://www.w3.org/2000/svg" xmlns:xlink="http://www.w3.org/1999/xlink">
<path d="M9.97824 0.638224C9.91103 0.362739 9.69081 0.129476 9.41839 0.0422624C9.10236 -0.0587951 8.80849 0.0208047 8.53465 0.287292C7.66234 1.13382 6.79147 1.97827 5.91917 2.82411L3.60971 5.06191L2.63301 4.11709C2.22761 3.72463 1.82148 3.33286 1.41679 2.9397C1.198 2.72859 0.949896 2.65038 0.689635 2.70852C0.358589 2.7812 0.131218 2.98539 0.0346924 3.29825C-0.055398 3.58412 0.0304024 3.85614 0.287088 4.10533L3.01197 6.73974C3.18929 6.91002 3.3995 7 3.62186 7C3.84494 7 4.05801 6.90863 4.23605 6.73628C4.47415 6.50717 4.70867 6.27806 4.9439 6.04757L6.4068 4.62377C7.52077 3.53844 8.63404 2.45311 9.75015 1.37193C9.96108 1.16774 10.0433 0.901943 9.97824 0.638224Z" fill="white"/>
</svg>
