<?xml version="1.0" encoding="utf-8"?>
<!-- Generator: Adobe Illustrator 16.0.0, SVG Export Plug-In . SVG Version: 6.00 Build 0)  -->
<!DOCTYPE svg PUBLIC "-//W3C//DTD SVG 1.1//EN" "http://www.w3.org/Graphics/SVG/1.1/DTD/svg11.dtd">
<svg version="1.1" id="Layer_1" xmlns="http://www.w3.org/2000/svg" xmlns:xlink="http://www.w3.org/1999/xlink" x="0px" y="0px"
	 width="25px" height="25px" viewBox="0 0 25 25" enable-background="new 0 0 25 25" xml:space="preserve">
<g>
	<path fill="none" d="M16.027,8.688c-0.254-0.257-0.672-0.257-0.924,0l-2.854,2.853L9.392,8.688c-0.255-0.257-0.668-0.257-0.927,0
		c-0.252,0.254-0.252,0.669,0,0.924l2.857,2.854L8.465,15.32c-0.252,0.256-0.252,0.67,0,0.927c0.259,0.255,0.672,0.255,0.927,0
		l2.858-2.854l2.854,2.854c0.252,0.255,0.67,0.255,0.924,0c0.256-0.257,0.256-0.671,0-0.927l-2.854-2.854l2.854-2.854
		C16.283,9.357,16.283,8.942,16.027,8.688z"/>
	<path fill="#DB1D29" d="M12.25,2.846c-5.364,0-9.708,4.346-9.708,9.706c0,5.361,4.344,9.708,9.708,9.708
		c5.357,0,9.705-4.347,9.705-9.708C21.955,7.192,17.607,2.846,12.25,2.846z"/>
	<g>
		<path fill="#FFFFFF" d="M16.027,15.32c0.256,0.256,0.256,0.67,0,0.927c-0.254,0.255-0.672,0.255-0.924,0l-2.854-2.854
			l-2.858,2.854c-0.255,0.255-0.668,0.255-0.927,0c-0.252-0.257-0.252-0.671,0-0.927l2.857-2.854L8.465,9.612
			c-0.252-0.255-0.252-0.67,0-0.924c0.259-0.257,0.672-0.257,0.927,0l2.858,2.853l2.854-2.853c0.252-0.257,0.67-0.257,0.924,0
			c0.256,0.254,0.256,0.669,0,0.924l-2.854,2.854L16.027,15.32z"/>
	</g>
</g>
</svg>
