<?xml version="1.0" encoding="utf-8"?>
<!-- Generator: Adobe Illustrator 16.0.0, SVG Export Plug-In . SVG Version: 6.00 Build 0)  -->
<!DOCTYPE svg PUBLIC "-//W3C//DTD SVG 1.1//EN" "http://www.w3.org/Graphics/SVG/1.1/DTD/svg11.dtd">
<svg version="1.1" id="Layer_1" xmlns="http://www.w3.org/2000/svg" xmlns:xlink="http://www.w3.org/1999/xlink" x="0px" y="0px"
	 width="25px" height="25px" viewBox="0 0 25 25" enable-background="new 0 0 25 25" xml:space="preserve">
<g>
	<path fill="#407BFF" d="M20.525,6.467l-4.222-4.222c-0.063-0.066-0.152-0.107-0.245-0.105H5.808
		C5.059,2.145,4.455,2.75,4.451,3.499v6.733c0,0.193,0.155,0.351,0.352,0.351c0.193,0,0.352-0.158,0.352-0.351V3.499
		c0-0.362,0.293-0.654,0.653-0.654h9.897v3.87c0,0.194,0.159,0.351,0.354,0.351h3.868v14.12c0,0.361-0.292,0.653-0.653,0.653l0,0
		H5.808c-0.36,0-0.653-0.292-0.653-0.653l0,0v-1.809c0-0.192-0.158-0.352-0.352-0.352c-0.196,0-0.352,0.159-0.352,0.352v1.809
		c0.004,0.747,0.607,1.354,1.356,1.357h13.466c0.748-0.003,1.353-0.61,1.357-1.357V6.714C20.632,6.621,20.594,6.531,20.525,6.467z
		 M16.41,3.343l3.019,3.019H16.41V3.343z"/>
	<path fill="#407BFF" d="M17.817,17.182v-4.756c0.003-0.626-0.501-1.135-1.127-1.14c-0.004,0-0.01,0-0.013,0H4.184
		c-0.627-0.003-1.136,0.501-1.14,1.126c-0.001,0.004-0.001,0.01,0,0.014v4.756c-0.004,0.626,0.5,1.136,1.125,1.14
		c0.005,0,0.01,0,0.015,0h12.494c0.626,0.004,1.135-0.501,1.14-1.126C17.817,17.19,17.817,17.187,17.817,17.182z M6.209,15.725
		c0.231,0.241,0.552,0.377,0.888,0.374c0.178,0.001,0.355-0.037,0.521-0.105c0.177-0.089,0.337-0.206,0.478-0.345l0.4,0.407
		c-0.351,0.413-0.866,0.649-1.406,0.647c-0.523,0.025-1.032-0.169-1.407-0.534c-0.735-0.756-0.735-1.961,0-2.717
		c0.375-0.365,0.882-0.563,1.407-0.548c0.539-0.007,1.053,0.224,1.406,0.634l-0.394,0.428c-0.141-0.148-0.307-0.268-0.491-0.351
		c-0.175-0.073-0.362-0.105-0.55-0.101c-0.317,0.014-0.62,0.142-0.852,0.36c-0.253,0.234-0.392,0.568-0.379,0.914
		C5.821,15.141,5.958,15.479,6.209,15.725z M11.437,16.429c-0.271,0.208-0.608,0.313-0.95,0.296
		c-0.565,0.004-1.109-0.209-1.526-0.591l0.388-0.472c0.311,0.299,0.722,0.472,1.152,0.485c0.17,0.01,0.338-0.035,0.479-0.126
		c0.115-0.078,0.181-0.207,0.176-0.346c0.006-0.132-0.059-0.257-0.168-0.331c-0.175-0.104-0.369-0.175-0.569-0.211
		c-0.207-0.049-0.412-0.11-0.613-0.183c-0.135-0.047-0.262-0.119-0.372-0.211c-0.228-0.183-0.347-0.463-0.324-0.753
		c-0.019-0.31,0.123-0.605,0.373-0.789c0.268-0.189,0.588-0.284,0.914-0.273c0.239,0,0.478,0.038,0.703,0.113
		c0.22,0.07,0.422,0.184,0.598,0.33l-0.33,0.465c-0.129-0.111-0.279-0.192-0.442-0.239c-0.176-0.063-0.361-0.097-0.549-0.099
		c-0.155-0.004-0.308,0.036-0.443,0.112c-0.112,0.071-0.177,0.198-0.169,0.33c-0.007,0.137,0.057,0.268,0.169,0.346
		c0.233,0.118,0.481,0.203,0.739,0.253c0.309,0.06,0.6,0.19,0.851,0.379c0.193,0.183,0.298,0.439,0.289,0.705
		c0.003,0.308-0.138,0.6-0.381,0.787L11.437,16.429z M14.251,16.682h-0.705l-1.469-3.665h0.703l1.132,2.736l1.126-2.736h0.704
		L14.251,16.682z"/>
</g>
</svg>
