<?xml version="1.0" encoding="utf-8"?>
<!-- Generator: Adobe Illustrator 16.0.0, SVG Export Plug-In . SVG Version: 6.00 Build 0)  -->
<!DOCTYPE svg PUBLIC "-//W3C//DTD SVG 1.1//EN" "http://www.w3.org/Graphics/SVG/1.1/DTD/svg11.dtd">
<svg version="1.1" id="Layer_1" xmlns="http://www.w3.org/2000/svg" xmlns:xlink="http://www.w3.org/1999/xlink" x="0px" y="0px"
	 width="31px" height="31px" viewBox="0 0 31 31" enable-background="new 0 0 31 31" xml:space="preserve">
<g id="Layer_3" display="none">
	<rect x="-4154.561" y="-513.906" display="inline" fill="#5D5D5D" width="9481.221" height="9392.563"/>
</g>
<g id="Layer_1_1_">
	<g>
		<g>
			<g>
				<path fill="#FFFFFF" d="M27.378,5.576l-1.831-1.831c-1.361-1.361-3.734-1.361-5.096,0l-2.366,2.368
					c-0.002,0.001-0.005,0.005-0.008,0.006c0,0.002-0.005,0.005-0.007,0.006L3.972,20.223c-0.155,0.154-0.255,0.356-0.286,0.573
					l-0.915,6.406c-0.046,0.315,0.059,0.635,0.283,0.858c0.191,0.194,0.45,0.301,0.717,0.301c0.049,0,0.098-0.006,0.145-0.012
					l6.408-0.914c0.217-0.029,0.419-0.134,0.572-0.285L24.992,13.05c0-0.001,0.005-0.005,0.005-0.006
					c0.003-0.002,0.005-0.006,0.008-0.009l2.368-2.368c0.682-0.681,1.057-1.583,1.057-2.545S28.057,6.256,27.378,5.576z
					 M9.704,25.477l-4.736,0.681l0.676-4.738L18.792,8.273l4.06,4.059L9.704,25.477z M25.941,9.236l-1.655,1.66l-4.06-4.059
					l1.66-1.66c0.594-0.597,1.631-0.597,2.227,0l1.83,1.83c0.302,0.299,0.463,0.694,0.463,1.116
					C26.404,8.544,26.242,8.941,25.941,9.236z"/>
			</g>
		</g>
	</g>
</g>
</svg>
