<?xml version="1.0" encoding="utf-8"?>
<!-- Generator: Adobe Illustrator 16.0.0, SVG Export Plug-In . SVG Version: 6.00 Build 0)  -->
<!DOCTYPE svg PUBLIC "-//W3C//DTD SVG 1.1//EN" "http://www.w3.org/Graphics/SVG/1.1/DTD/svg11.dtd">
<svg version="1.1" id="Layer_1" xmlns="http://www.w3.org/2000/svg" xmlns:xlink="http://www.w3.org/1999/xlink" x="0px" y="0px"
	 width="51px" height="51px" viewBox="0 0 51 51" enable-background="new 0 0 51 51" xml:space="preserve">
<g id="Layer_3" display="none">
	<rect x="-3749.552" y="-514.303" display="inline" fill="#5D5D5D" width="9481.222" height="9392.564"/>
</g>
<g>
	<g>
		<path fill="#414042" d="M36.725,13.208H14.272c-1.298,0-2.344,1.046-2.344,2.345c0,1.297,1.046,2.345,2.344,2.345h22.453
			c1.297,0,2.346-1.048,2.346-2.345C39.07,14.254,38.021,13.208,36.725,13.208z"/>
		<path fill="#414042" d="M31.253,23.154h-16.98c-1.298,0-2.344,1.049-2.344,2.346s1.046,2.344,2.344,2.344h16.98
			c1.293,0,2.343-1.047,2.343-2.344S32.546,23.154,31.253,23.154z"/>
		<path fill="#414042" d="M24.216,33.104h-9.943c-1.298,0-2.344,1.045-2.344,2.346c0,1.296,1.046,2.345,2.344,2.345h9.943
			c1.297,0,2.347-1.049,2.347-2.345C26.563,34.148,25.513,33.104,24.216,33.104z"/>
	</g>
</g>
</svg>
