<?xml version="1.0" encoding="utf-8"?>
<!-- Generator: Adobe Illustrator 16.0.0, SVG Export Plug-In . SVG Version: 6.00 Build 0)  -->
<!DOCTYPE svg PUBLIC "-//W3C//DTD SVG 1.1//EN" "http://www.w3.org/Graphics/SVG/1.1/DTD/svg11.dtd">
<svg version="1.1" xmlns="http://www.w3.org/2000/svg" xmlns:xlink="http://www.w3.org/1999/xlink" x="0px" y="0px" width="31px"
	 height="31px" viewBox="0 0 31 31" enable-background="new 0 0 31 31" xml:space="preserve">
<g id="Layer_3">
</g>
<g id="Layer_2">
</g>
<g id="Layer_1">
	<g>
		<path fill="#414143" d="M12.055,9.727h13.267c1.342,0,2.434-1.091,2.434-2.433s-1.092-2.433-2.434-2.433H12.055
			c-1.342,0-2.433,1.091-2.433,2.433S10.713,9.727,12.055,9.727z M12.055,6.399h13.267c0.494,0,0.896,0.402,0.896,0.896
			c0,0.493-0.401,0.895-0.896,0.895H12.055c-0.494,0-0.896-0.401-0.896-0.895C11.159,6.801,11.561,6.399,12.055,6.399z"/>
		<path fill="#414143" d="M25.321,12.841H12.055c-1.342,0-2.433,1.091-2.433,2.432c0,1.341,1.091,2.433,2.433,2.433h13.267
			c1.342,0,2.434-1.091,2.434-2.433C27.755,13.932,26.663,12.841,25.321,12.841z M25.321,16.168H12.055
			c-0.494,0-0.896-0.402-0.896-0.896s0.401-0.896,0.896-0.896h13.267c0.494,0,0.896,0.402,0.896,0.896S25.815,16.168,25.321,16.168z
			"/>
		<path fill="#414143" d="M25.321,20.82H12.055c-1.342,0-2.433,1.091-2.433,2.433c0,1.341,1.091,2.432,2.433,2.432h13.267
			c1.342,0,2.434-1.091,2.434-2.432C27.755,21.911,26.663,20.82,25.321,20.82z M25.321,24.148H12.055
			c-0.494,0-0.896-0.402-0.896-0.896c0-0.493,0.401-0.895,0.896-0.895h13.267c0.494,0,0.896,0.401,0.896,0.895
			C26.217,23.746,25.815,24.148,25.321,24.148z"/>
		<path fill="#414143" d="M6.111,4.528c-1.525,0-2.766,1.241-2.766,2.767c0,1.525,1.24,2.766,2.766,2.766s2.766-1.241,2.766-2.766
			C8.877,5.769,7.637,4.528,6.111,4.528z M6.111,8.523c-0.678,0-1.229-0.551-1.229-1.229s0.551-1.229,1.229-1.229
			S7.34,6.617,7.34,7.294S6.789,8.523,6.111,8.523z"/>
		<path fill="#414143" d="M6.111,12.507c-1.525,0-2.766,1.241-2.766,2.766s1.24,2.766,2.766,2.766s2.766-1.241,2.766-2.766
			S7.637,12.507,6.111,12.507z M6.111,16.501c-0.678,0-1.229-0.551-1.229-1.229s0.551-1.229,1.229-1.229s1.229,0.551,1.229,1.229
			S6.789,16.501,6.111,16.501z"/>
		<path fill="#414143" d="M6.111,20.487c-1.525,0-2.766,1.241-2.766,2.766c0,1.525,1.24,2.767,2.766,2.767s2.766-1.241,2.766-2.767
			C8.877,21.728,7.637,20.487,6.111,20.487z M6.111,24.481c-0.678,0-1.229-0.551-1.229-1.229s0.551-1.229,1.229-1.229
			s1.229,0.551,1.229,1.229S6.789,24.481,6.111,24.481z"/>
	</g>
</g>
</svg>
