<?xml version="1.0" encoding="utf-8"?>
<!-- Generator: Adobe Illustrator 16.0.0, SVG Export Plug-In . SVG Version: 6.00 Build 0)  -->
<!DOCTYPE svg PUBLIC "-//W3C//DTD SVG 1.1//EN" "http://www.w3.org/Graphics/SVG/1.1/DTD/svg11.dtd">
<svg version="1.1" id="Layer_1" xmlns="http://www.w3.org/2000/svg" xmlns:xlink="http://www.w3.org/1999/xlink" x="0px" y="0px"
	 width="25px" height="25px" viewBox="0 0 25 25" enable-background="new 0 0 25 25" xml:space="preserve">
<g>
	<g>
		<path fill="#00B3ED" d="M20.067,11.588h-6.459V5.129c0-0.578-0.47-1.047-1.046-1.047c-0.58,0-1.048,0.469-1.048,1.047v6.459H5.054
			c-0.576,0-1.046,0.471-1.046,1.048c0,0.578,0.47,1.046,1.046,1.046h6.461v6.46c0,0.579,0.468,1.048,1.048,1.048
			c0.576,0,1.046-0.469,1.046-1.048v-6.46h6.459c0.579,0,1.048-0.469,1.048-1.046C21.115,12.059,20.646,11.588,20.067,11.588z"/>
	</g>
</g>
</svg>
