<?xml version="1.0" encoding="utf-8"?>
<!-- Generator: Adobe Illustrator 16.0.0, SVG Export Plug-In . SVG Version: 6.00 Build 0)  -->
<!DOCTYPE svg PUBLIC "-//W3C//DTD SVG 1.1//EN" "http://www.w3.org/Graphics/SVG/1.1/DTD/svg11.dtd">
<svg version="1.1" xmlns="http://www.w3.org/2000/svg" xmlns:xlink="http://www.w3.org/1999/xlink" x="0px" y="0px" width="31px"
	 height="31px" viewBox="0 0 31 31" enable-background="new 0 0 31 31" xml:space="preserve">
<g id="Layer_3">
</g>
<g id="Layer_2">
</g>
<g id="Layer_1">
	<g>
		<path fill="#414143" d="M15.86,21.215c0.103-0.001,0.18-0.019,0.25-0.056c0.07-0.029,0.11-0.051,0.113-0.053l9.55-4.803
			c1.438-0.627,1.221-1.133,1.127-1.348c-0.128-0.291-0.336-0.426-0.659-0.426c-0.527,0-1.123,0.373-1.129,0.377l-7.151,3.415
			l-0.018-0.019l-1.47,0.706c0.001,0,0.001,0,0.001,0s-0.255,0.168-0.599,0.191l-0.02,0.001l-0.04-0.002
			c-0.341-0.022-0.605-0.199-0.617-0.207l-8.592-4.074c-0.025-0.016-0.623-0.389-1.149-0.389c-0.322,0-0.531,0.136-0.658,0.426
			c-0.096,0.219-0.09,0.396,0.016,0.574c0.154,0.26,0.524,0.52,1.102,0.771l9.55,4.802c0.014,0.007,0.052,0.029,0.105,0.051
			c0.087,0.044,0.164,0.062,0.243,0.063l0.034,0.203l-0.009-0.202L15.86,21.215z"/>
		<path fill="#414143" d="M15.862,26.25c0.1-0.001,0.177-0.02,0.248-0.057c0.07-0.029,0.11-0.051,0.113-0.053l9.55-4.804
			c1.438-0.628,1.221-1.132,1.127-1.347c-0.128-0.292-0.336-0.427-0.659-0.427c-0.53,0-1.123,0.373-1.129,0.377l-7.153,3.416
			l-0.017-0.019l-1.469,0.705c0.001,0,0.001,0,0.001,0s-0.255,0.168-0.599,0.192h-0.02l-0.04-0.001
			c-0.341-0.024-0.605-0.198-0.617-0.207l-1.442-0.69l-0.151-0.044l-6.998-3.34c-0.025-0.016-0.623-0.389-1.149-0.389
			c-0.322,0-0.531,0.135-0.658,0.427c-0.096,0.218-0.09,0.395,0.016,0.572c0.154,0.261,0.524,0.521,1.102,0.77l9.55,4.805
			c0.014,0.007,0.052,0.028,0.105,0.05c0.089,0.045,0.164,0.063,0.241,0.063l0.036,0.203l-0.01-0.201L15.862,26.25z"/>
		<path fill="#414143" d="M15.864,16.016c0.101,0,0.176-0.02,0.248-0.056c0.07-0.029,0.109-0.051,0.113-0.053l9.55-4.803
			c0.411-0.18,0.716-0.365,0.921-0.556l0.038-0.033c0.02-0.021,0.045-0.052,0.071-0.083c0.118-0.158,0.166-0.288,0.161-0.412
			c0.005-0.142-0.043-0.272-0.142-0.403c-0.046-0.058-0.071-0.09-0.104-0.122c-0.229-0.213-0.535-0.397-0.937-0.572l-9.55-4.803
			c-0.012-0.007-0.051-0.028-0.109-0.052c-0.085-0.043-0.161-0.062-0.24-0.063l-0.049-0.201l-0.005,0.201
			c-0.093,0.001-0.17,0.02-0.242,0.055c-0.07,0.031-0.109,0.052-0.112,0.053l-9.55,4.804C5.51,9.1,5.213,9.279,5.007,9.472
			C4.95,9.526,4.926,9.557,4.901,9.585c-0.124,0.164-0.17,0.29-0.166,0.417c-0.004,0.144,0.042,0.271,0.142,0.404
			c0.053,0.063,0.076,0.091,0.104,0.121c0.232,0.217,0.53,0.396,0.937,0.573l9.55,4.802c0.016,0.008,0.052,0.029,0.107,0.051
			c0.087,0.043,0.163,0.063,0.239,0.063l0.036,0.202l-0.008-0.201L15.864,16.016z M15.199,13.793l-1.438-0.692l-0.019,0.021
			l-6.52-3.111l6.516-3.109l0.019,0.019l1.47-0.708c0,0,0.255-0.168,0.6-0.191h0.051c0.349,0.025,0.614,0.199,0.625,0.207
			l7.978,3.783l-6.52,3.111l-0.017-0.021l-1.466,0.707c0,0-0.256,0.168-0.601,0.192h-0.051C15.476,13.975,15.212,13.8,15.199,13.793
			z"/>
	</g>
</g>
</svg>
