<?xml version="1.0" encoding="utf-8"?>
<!-- Generator: Adobe Illustrator 16.0.0, SVG Export Plug-In . SVG Version: 6.00 Build 0)  -->
<!DOCTYPE svg PUBLIC "-//W3C//DTD SVG 1.1//EN" "http://www.w3.org/Graphics/SVG/1.1/DTD/svg11.dtd">
<svg version="1.1" xmlns="http://www.w3.org/2000/svg" xmlns:xlink="http://www.w3.org/1999/xlink" x="0px" y="0px" width="31px"
	 height="31px" viewBox="0 0 31 31" enable-background="new 0 0 31 31" xml:space="preserve">
<g id="Layer_3">
</g>
<g id="Layer_2">
</g>
<g id="Layer_1">
	<g>
		<path fill="#414143" d="M26.656,25.186c-1.71-1.725-3.537-3.562-5.41-5.4c-0.366-0.361-0.396-0.652-0.104-1.072
			c2.77-4.012,2.151-9.25-1.475-12.461c-2.58-2.283-5.624-2.987-8.951-2.066c-4.014,1.11-6.873,4.862-6.948,9.125
			c0.034,0.204,0.067,0.443,0.101,0.683c0.07,0.505,0.142,1.027,0.25,1.528c0.865,4.015,4.533,7.081,8.724,7.288
			c2.173,0.102,4.171-0.468,5.935-1.713c0.189-0.133,0.339-0.191,0.487-0.191c0.237,0,0.414,0.156,0.527,0.273
			c0.672,0.696,1.357,1.379,2.043,2.061l1.592,1.591c0.682,0.684,1.366,1.369,2.053,2.045c0.38,0.372,0.864,0.435,1.276,0.17
			c0.394-0.253,0.58-0.781,0.413-1.176C27.063,25.616,26.85,25.382,26.656,25.186z M13.372,20.791c-2.017,0-3.884-0.778-5.302-2.19
			c-1.417-1.413-2.198-3.276-2.197-5.247c0.002-4.138,3.35-7.509,7.466-7.516h0.014c4.106,0,7.453,3.345,7.461,7.456
			C20.822,17.403,17.485,20.767,13.372,20.791z"/>
	</g>
</g>
</svg>
