<?xml version="1.0" encoding="utf-8"?>
<!-- Generator: Adobe Illustrator 16.0.0, SVG Export Plug-In . SVG Version: 6.00 Build 0)  -->
<!DOCTYPE svg PUBLIC "-//W3C//DTD SVG 1.1//EN" "http://www.w3.org/Graphics/SVG/1.1/DTD/svg11.dtd">
<svg version="1.1" id="Layer_1" xmlns="http://www.w3.org/2000/svg" xmlns:xlink="http://www.w3.org/1999/xlink" x="0px" y="0px"
	 width="30px" height="30px" viewBox="0 0 30 30" enable-background="new 0 0 30 30" xml:space="preserve">
<g id="Layer_2">
</g>
<g id="Layer_1_1_">
</g>
<g>
	<g>
		<path fill="#FFFFFF" d="M14.838,3.365c-6.415,0-11.635,5.219-11.635,11.637c0,2.199,0.629,4.357,1.818,6.238l0.062,0.098
			L3.81,25.58c-0.049,0.166-0.03,0.34,0.051,0.492c0.08,0.148,0.217,0.262,0.375,0.309c0.138,0.043,0.277,0.039,0.4-0.006
			l4.155-1.434l0.101,0.061c1.79,1.068,3.846,1.633,5.946,1.633c6.416,0,11.637-5.219,11.637-11.633
			C26.475,8.584,21.254,3.365,14.838,3.365z M14.838,25.348c-2.003,0-3.946-0.572-5.618-1.654c-0.163-0.106-0.371-0.133-0.561-0.069
			l-3.253,1.125l0.996-3.328c0.056-0.188,0.026-0.385-0.085-0.553c-1.194-1.746-1.826-3.775-1.826-5.865
			c0-5.707,4.641-10.35,10.347-10.35s10.348,4.643,10.348,10.35C25.186,20.707,20.544,25.348,14.838,25.348z"/>
		<path fill="#FFFFFF" d="M18.561,16.451c-0.092-0.096-0.23-0.203-0.398-0.203c-0.137,0-0.278,0.07-0.411,0.203l-1.224,1.223
			l-0.514-0.305c-0.055-0.027-0.103-0.051-0.146-0.08c-0.036-0.012-0.106-0.049-0.174-0.088l-0.119-0.063
			c-0.836-0.525-1.601-1.222-2.338-2.125c-0.387-0.485-0.639-0.887-0.815-1.301l-0.19-0.446l0.358-0.334
			c0.199-0.188,0.402-0.39,0.59-0.578l0.232-0.23c0.136-0.138,0.215-0.292,0.215-0.419c0-0.168-0.117-0.318-0.216-0.415
			l-0.718-0.734c-0.097-0.095-0.195-0.194-0.277-0.294c-0.117-0.129-0.273-0.282-0.426-0.423c-0.143-0.142-0.273-0.207-0.411-0.207
			c-0.17,0-0.322,0.109-0.419,0.201l-0.896,0.895c-0.226,0.222-0.347,0.479-0.372,0.784c-0.044,0.604,0.137,1.209,0.299,1.669
			c0.391,1.072,0.992,2.077,1.894,3.161c1.089,1.295,2.4,2.322,3.896,3.053c0.539,0.26,1.261,0.564,2.053,0.615l0.132-0.002
			c0.415,0,0.741-0.141,1.001-0.428c0.163-0.189,0.325-0.359,0.521-0.535l0.039-0.033c0.082-0.066,0.164-0.146,0.258-0.254
			c0.203-0.207,0.365-0.518,0.029-0.852L18.561,16.451z"/>
	</g>
</g>
</svg>
