<?xml version="1.0" encoding="utf-8"?>
<!-- Generator: Adobe Illustrator 16.0.0, SVG Export Plug-In . SVG Version: 6.00 Build 0)  -->
<!DOCTYPE svg PUBLIC "-//W3C//DTD SVG 1.1//EN" "http://www.w3.org/Graphics/SVG/1.1/DTD/svg11.dtd">
<svg version="1.1" id="Layer_1" xmlns="http://www.w3.org/2000/svg" xmlns:xlink="http://www.w3.org/1999/xlink" x="0px" y="0px"
	 width="50px" height="50px" viewBox="0 0 50 50" enable-background="new 0 0 50 50" xml:space="preserve">
<g>
	<g>
		<path fill="#3B0C36" d="M21.167,32.665c0.704,0,1.373,0.165,1.969,0.458V13.619H32.2V8.896H9.402v4.723h9.065v2.892H2.437v3.017
			h16.03v2.766H7.118v3.017h11.35v2.766h-6.541v3.017h6.541v2.442c0.741-0.535,1.646-0.854,2.635-0.868L21.167,32.665z"/>
		<path fill="#3B0C36" d="M43.831,32.665c0.529,0,1.038,0.094,1.512,0.265l-0.031-12.681H30.174v3.017h12.129l0.023,9.65
			c0.45-0.155,0.935-0.243,1.44-0.25L43.831,32.665z"/>
		<path fill="#3B0C36" d="M39.873,34.905h-14.81c0.418,0.698,0.66,1.519,0.663,2.394c0,0.227-0.016,0.449-0.045,0.669h13.54
			c-0.022-0.177-0.037-0.357-0.037-0.54C39.183,36.497,39.436,35.634,39.873,34.905z"/>
		<path fill="#3B0C36" d="M23.908,34.905c-0.225-0.268-0.483-0.502-0.772-0.695c-0.567-0.379-1.244-0.603-1.969-0.603l-0.05,0.001
			c-1.054,0.016-1.988,0.469-2.649,1.188c-0.625,0.682-1.006,1.604-1.004,2.63c0.004,1.892,1.709,3.55,3.647,3.55h0.006
			c1,0,1.928-0.38,2.612-1.068c0.527-0.53,0.868-1.203,0.996-1.94c0.037-0.217,0.058-0.439,0.058-0.666
			C24.78,36.387,24.449,35.551,23.908,34.905z M21.131,38.824c-0.847,0-1.533-0.686-1.533-1.533c0-0.845,0.686-1.53,1.533-1.53
			c0.846,0,1.531,0.686,1.531,1.53C22.663,38.139,21.977,38.824,21.131,38.824z"/>
		<path fill="#3B0C36" d="M46.486,34.905c-0.224-0.268-0.483-0.502-0.771-0.695c-0.567-0.379-1.243-0.603-1.97-0.603l-0.051,0.001
			c-1.053,0.016-1.987,0.469-2.648,1.188c-0.626,0.682-1.006,1.604-1.005,2.63c0.005,1.892,1.709,3.55,3.648,3.55h0.006
			c1,0,1.927-0.38,2.612-1.068c0.528-0.53,0.868-1.203,0.995-1.94c0.038-0.217,0.06-0.439,0.059-0.666
			C47.358,36.387,47.028,35.551,46.486,34.905z M43.71,38.824c-0.847,0-1.533-0.686-1.533-1.533c0-0.845,0.687-1.53,1.533-1.53
			c0.846,0,1.531,0.686,1.531,1.53C45.241,38.139,44.556,38.824,43.71,38.824z"/>
	</g>
</g>
</svg>
